<svg xmlns="http://www.w3.org/2000/svg" viewBox="0 0 87.74 99.92"><defs><style>.cls-1{fill:#50c3f1;}.cls-2,.cls-3{font-size:16.86px;fill:#fff;}.cls-2{font-family:OpenSans-Bold, Open Sans;font-weight:700;letter-spacing:0.2em;}.cls-3{font-family:OpenSans-Light, Open Sans;font-weight:300;letter-spacing:0.15em;}.cls-4{fill:none;stroke:#fff;stroke-miterlimit:10;stroke-width:0.25px;}</style></defs><title>Element 1</title><g id="Ebene_2" data-name="Ebene 2"><g id="Ebene_1-2" data-name="Ebene 1"><path class="cls-1" d="M0,27.23V72.7a4.5,4.5,0,0,0,2.25,3.89L41.62,99.32a4.52,4.52,0,0,0,4.5,0L85.49,76.59a4.5,4.5,0,0,0,2.25-3.89V27.23a4.49,4.49,0,0,0-2.25-3.89L46.12.6a4.52,4.52,0,0,0-4.5,0L2.25,23.34A4.49,4.49,0,0,0,0,27.23Z"/><text class="cls-2" transform="translate(16.26 43.51)">IRON</text><text class="cls-3" transform="translate(16.81 67.22)">H U B</text><line class="cls-4" x1="18.72" y1="49.96" x2="69.02" y2="49.96"/></g></g></svg>